<mxfile host="app.diagrams.net" modified="2023-08-25T19:24:52.834Z" agent="Mozilla/5.0 (Windows NT 10.0; Win64; x64) AppleWebKit/537.36 (KHTML, like Gecko) Chrome/116.0.0.0 Safari/537.36 Edg/116.0.1938.54" version="21.6.9" etag="Qk6NEIVHpw9HAmjocg_n" type="github">
  <diagram name="PÃ¡gina-1" id="o1jjUE61G6U9-v0W-IKj">
    <mxGraphModel>
      <root>
        <mxCell id="0" />
        <mxCell id="1" parent="0" />
      </root>
    </mxGraphModel>
  </diagram>
</mxfile>
